<?xml version="1.0" encoding="UTF-8" standalone="no"?>
<svg
   xmlns:dc="http://purl.org/dc/elements/1.1/"
   xmlns:cc="http://creativecommons.org/ns#"
   xmlns:rdf="http://www.w3.org/1999/02/22-rdf-syntax-ns#"
   xmlns:svg="http://www.w3.org/2000/svg"
   xmlns="http://www.w3.org/2000/svg"
   version="1.1"
   id="svg4895"
   viewBox="0 0 610.00001 120"
   height="120"
   width="610">
  <defs
     id="defs4897" />
  <metadata
     id="metadata4900">
    <rdf:RDF>
      <cc:Work
         rdf:about="">
        <dc:format>image/svg+xml</dc:format>
        <dc:type
           rdf:resource="http://purl.org/dc/dcmitype/StillImage" />
        <dc:title></dc:title>
      </cc:Work>
    </rdf:RDF>
  </metadata>
  <g
     transform="translate(0,-932.36216)"
     id="layer1">
    <g
       style="fill:#666666"
       id="g4150"
       transform="matrix(1.4930016,0,0,1.4930016,-37.930554,917.71133)">
      <polygon
         style="fill:#666666"
         points="73.377,53.719 73.564,26.396 50,16.563 26.473,26.396 26.68,53.719 29.542,60.118 29.329,68.971 44.67,90.188 41.132,56.059 33.868,52.385 33.058,45.729 44.401,51.563 42.947,62.563 50,68.563 57.091,62.563 55.675,51.563 67.018,45.729 66.208,52.385 58.943,56.059 55.404,90.188 70.748,68.971 70.523,60.118 "
         id="polygon4152" />
      <path
         style="fill:#666666"
         d="m 50,13.938 19.938,8.264 C 66.43,14.874 58.947,9.813 50.281,9.813 c -8.652,0 -16.125,5.045 -19.64,12.354 L 50,13.938 Z"
         id="path4154" />
    </g>
    <g
       transform="matrix(1.2024328,0,0,1.2024328,-140.923,562.98499)"
       style="font-style:normal;font-weight:normal;font-size:40px;line-height:125%;font-family:sans-serif;letter-spacing:0px;word-spacing:0px;fill:#666666;fill-opacity:1;stroke:none;stroke-width:1px;stroke-linecap:butt;stroke-linejoin:miter;stroke-opacity:1"
       id="text5464">
      <path
         d="m 241.06834,344.4512 q 0,-1.66015 -1.17187,-2.53906 -1.17188,-0.89844 -4.21875,-1.875 -3.04688,-0.99609 -4.82422,-1.95313 -4.84375,-2.61718 -4.84375,-7.05078 0,-2.30468 1.28906,-4.10156 1.3086,-1.81641 3.73047,-2.83203 2.44141,-1.01563 5.46875,-1.01563 3.04688,0 5.42969,1.11329 2.38281,1.09375 3.69141,3.10546 1.32812,2.01172 1.32812,4.57032 l -5.85937,0 q 0,-1.95313 -1.23047,-3.02735 -1.23047,-1.09375 -3.45703,-1.09375 -2.14844,0 -3.33985,0.91797 -1.1914,0.89844 -1.1914,2.38281 0,1.38672 1.38671,2.32422 1.40625,0.9375 4.1211,1.75782 5,1.5039 7.28515,3.73046 2.28516,2.22657 2.28516,5.54688 0,3.69141 -2.79297,5.80078 -2.79297,2.08984 -7.51953,2.08984 -3.28125,0 -5.97656,-1.1914 -2.69531,-1.21094 -4.1211,-3.30078 -1.40625,-2.08985 -1.40625,-4.84375 l 5.87891,0 q 0,4.70703 5.625,4.70703 2.08984,0 3.26172,-0.83985 1.17187,-0.85937 1.17187,-2.38281 z"
         style="font-style:normal;font-variant:normal;font-weight:bold;font-stretch:normal;font-family:Roboto;-inkscape-font-specification:'Roboto Bold';fill:#666666"
         id="path5737" />
      <path
         d="m 269.58397,341.54105 q 0,4.88281 -2.22656,7.83203 -2.20703,2.92968 -5.97657,2.92968 -3.20312,0 -5.17578,-2.22656 l 0,9.96094 -5.64453,0 0,-29.25781 5.23438,0 0.19531,2.07031 q 2.05078,-2.46094 5.35156,-2.46094 3.90625,0 6.07422,2.89063 2.16797,2.89062 2.16797,7.96875 l 0,0.29297 z m -5.64453,-0.41016 q 0,-2.94922 -1.05469,-4.55078 -1.03516,-1.60156 -3.02734,-1.60156 -2.65625,0 -3.65235,2.03125 l 0,8.65234 q 1.03516,2.08984 3.69141,2.08984 4.04297,0 4.04297,-6.62109 z"
         style="font-style:normal;font-variant:normal;font-weight:bold;font-stretch:normal;font-family:Roboto;-inkscape-font-specification:'Roboto Bold';fill:#666666"
         id="path5739" />
      <path
         d="m 285.30663,351.91214 q -0.39063,-0.76172 -0.56641,-1.89453 -2.05078,2.28515 -5.33203,2.28515 -3.10547,0 -5.15625,-1.79687 -2.03125,-1.79688 -2.03125,-4.53125 0,-3.35938 2.48047,-5.15625 2.5,-1.79688 7.20703,-1.81641 l 2.59765,0 0,-1.21093 q 0,-1.46485 -0.76171,-2.34375 -0.74219,-0.87891 -2.36329,-0.87891 -1.42578,0 -2.24609,0.68359 -0.80078,0.6836 -0.80078,1.875 l -5.64453,0 q 0,-1.83593 1.13281,-3.39843 1.13281,-1.5625 3.20313,-2.44141 2.07031,-0.89844 4.64843,-0.89844 3.90625,0 6.19141,1.97266 2.30469,1.95312 2.30469,5.50781 l 0,9.16016 q 0.0195,3.00781 0.83984,4.55078 l 0,0.33203 -5.70312,0 z m -4.66797,-3.92578 q 1.25,0 2.30468,-0.54688 1.05469,-0.5664 1.5625,-1.5039 l 0,-3.63282 -2.10937,0 q -4.23828,0 -4.51172,2.92969 l -0.0195,0.33203 q 0,1.05469 0.74219,1.73828 0.74218,0.6836 2.03125,0.6836 z"
         style="font-style:normal;font-variant:normal;font-weight:bold;font-stretch:normal;font-family:Roboto;-inkscape-font-specification:'Roboto Bold';fill:#666666"
         id="path5741" />
      <path
         d="m 306.41991,336.0723 q -1.15235,-0.15625 -2.03125,-0.15625 -3.20313,0 -4.19922,2.16796 l 0,13.82813 -5.64453,0 0,-21.13281 5.33203,0 0.15625,2.51953 q 1.69922,-2.91016 4.70703,-2.91016 0.9375,0 1.75781,0.25391 l -0.0781,5.42969 z"
         style="font-style:normal;font-variant:normal;font-weight:bold;font-stretch:normal;font-family:Roboto;-inkscape-font-specification:'Roboto Bold';fill:#666666"
         id="path5743" />
      <path
         d="m 316.92772,325.58401 0,5.19532 3.61328,0 0,4.14062 -3.61328,0 0,10.54688 q 0,1.17187 0.44922,1.67968 0.44922,0.50782 1.71875,0.50782 0.9375,0 1.66015,-0.13672 l 0,4.27734 q -1.66015,0.50781 -3.41796,0.50781 -5.9375,0 -6.05469,-5.99609 l 0,-11.38672 -3.08594,0 0,-4.14062 3.08594,0 0,-5.19532 5.64453,0 z"
         style="font-style:normal;font-variant:normal;font-weight:bold;font-stretch:normal;font-family:Roboto;-inkscape-font-specification:'Roboto Bold';fill:#666666"
         id="path5745" />
      <path
         d="m 335.93163,351.91214 q -0.39063,-0.76172 -0.56641,-1.89453 -2.05078,2.28515 -5.33203,2.28515 -3.10547,0 -5.15625,-1.79687 -2.03125,-1.79688 -2.03125,-4.53125 0,-3.35938 2.48047,-5.15625 2.5,-1.79688 7.20703,-1.81641 l 2.59765,0 0,-1.21093 q 0,-1.46485 -0.76171,-2.34375 -0.74219,-0.87891 -2.36329,-0.87891 -1.42578,0 -2.24609,0.68359 -0.80078,0.6836 -0.80078,1.875 l -5.64453,0 q 0,-1.83593 1.13281,-3.39843 1.13281,-1.5625 3.20313,-2.44141 2.07031,-0.89844 4.64843,-0.89844 3.90625,0 6.19141,1.97266 2.30469,1.95312 2.30469,5.50781 l 0,9.16016 q 0.0195,3.00781 0.83984,4.55078 l 0,0.33203 -5.70312,0 z m -4.66797,-3.92578 q 1.25,0 2.30468,-0.54688 1.05469,-0.5664 1.5625,-1.5039 l 0,-3.63282 -2.10937,0 q -4.23828,0 -4.51172,2.92969 l -0.0195,0.33203 q 0,1.05469 0.74219,1.73828 0.74218,0.6836 2.03125,0.6836 z"
         style="font-style:normal;font-variant:normal;font-weight:bold;font-stretch:normal;font-family:Roboto;-inkscape-font-specification:'Roboto Bold';fill:#666666"
         id="path5747" />
      <path
         d="m 350.36522,330.77933 0.17578,2.4414 q 2.26563,-2.83203 6.07422,-2.83203 3.35937,0 5,1.97266 1.64062,1.97265 1.67969,5.89844 l 0,13.65234 -5.64453,0 0,-13.51563 q 0,-1.79687 -0.78125,-2.59765 -0.78125,-0.82031 -2.59766,-0.82031 -2.38281,0 -3.57422,2.03125 l 0,14.90234 -5.64453,0 0,-21.13281 5.3125,0 z"
         style="font-style:normal;font-variant:normal;font-weight:bold;font-stretch:normal;font-family:Roboto;-inkscape-font-specification:'Roboto Bold';fill:#666666"
         id="path5749" />
      <path
         d="m 382.88475,330.77933 0.17578,2.36328 q 2.2461,-2.75391 6.07422,-2.75391 4.08203,0 5.60547,3.22266 2.22656,-3.22266 6.34766,-3.22266 3.4375,0 5.11718,2.01172 1.67969,1.99219 1.67969,6.01563 l 0,13.49609 -5.66406,0 0,-13.47656 q 0,-1.79688 -0.70313,-2.61719 -0.70312,-0.83984 -2.48047,-0.83984 -2.53906,0 -3.51562,2.42187 l 0.0195,14.51172 -5.64453,0 0,-13.45703 q 0,-1.83594 -0.72266,-2.65625 -0.72265,-0.82031 -2.46093,-0.82031 -2.40235,0 -3.47657,1.99218 l 0,14.94141 -5.64453,0 0,-21.13281 5.29297,0 z"
         style="font-style:normal;font-variant:normal;font-weight:bold;font-stretch:normal;font-family:Roboto;-inkscape-font-specification:'Roboto Bold';fill:#666666"
         id="path5751" />
      <path
         d="m 418.15819,351.91214 -5.66406,0 0,-21.13281 5.66406,0 0,21.13281 z m -5.9961,-26.60156 q 0,-1.26953 0.83985,-2.08985 0.85937,-0.82031 2.32422,-0.82031 1.44531,0 2.30468,0.82031 0.85938,0.82032 0.85938,2.08985 0,1.28906 -0.87891,2.10937 -0.85937,0.82031 -2.28515,0.82031 -1.42578,0 -2.30469,-0.82031 -0.85938,-0.82031 -0.85938,-2.10937 z"
         style="font-style:normal;font-variant:normal;font-weight:bold;font-stretch:normal;font-family:Roboto;-inkscape-font-specification:'Roboto Bold';fill:#666666"
         id="path5753" />
      <path
         d="m 428.02147,330.77933 0.17578,2.4414 q 2.26563,-2.83203 6.07422,-2.83203 3.35937,0 5,1.97266 1.64062,1.97265 1.67969,5.89844 l 0,13.65234 -5.64453,0 0,-13.51563 q 0,-1.79687 -0.78125,-2.59765 -0.78125,-0.82031 -2.59766,-0.82031 -2.38281,0 -3.57422,2.03125 l 0,14.90234 -5.64453,0 0,-21.13281 5.3125,0 z"
         style="font-style:normal;font-variant:normal;font-weight:bold;font-stretch:normal;font-family:Roboto;-inkscape-font-specification:'Roboto Bold';fill:#666666"
         id="path5755" />
      <path
         d="m 451.20506,351.91214 -5.66406,0 0,-21.13281 5.66406,0 0,21.13281 z m -5.99609,-26.60156 q 0,-1.26953 0.83984,-2.08985 0.85938,-0.82031 2.32422,-0.82031 1.44531,0 2.30469,0.82031 0.85937,0.82032 0.85937,2.08985 0,1.28906 -0.8789,2.10937 -0.85938,0.82031 -2.28516,0.82031 -1.42578,0 -2.30469,-0.82031 -0.85937,-0.82031 -0.85937,-2.10937 z"
         style="font-style:normal;font-variant:normal;font-weight:bold;font-stretch:normal;font-family:Roboto;-inkscape-font-specification:'Roboto Bold';fill:#666666"
         id="path5757" />
      <path
         d="m 461.166,330.77933 0.17578,2.36328 q 2.2461,-2.75391 6.07422,-2.75391 4.08203,0 5.60547,3.22266 2.22656,-3.22266 6.34766,-3.22266 3.4375,0 5.11718,2.01172 1.67969,1.99219 1.67969,6.01563 l 0,13.49609 -5.66406,0 0,-13.47656 q 0,-1.79688 -0.70313,-2.61719 -0.70312,-0.83984 -2.48047,-0.83984 -2.53906,0 -3.51562,2.42187 l 0.0195,14.51172 -5.64453,0 0,-13.45703 q 0,-1.83594 -0.72266,-2.65625 -0.72265,-0.82031 -2.46093,-0.82031 -2.40235,0 -3.47657,1.99218 l 0,14.94141 -5.64453,0 0,-21.13281 5.29297,0 z"
         style="font-style:normal;font-variant:normal;font-weight:bold;font-stretch:normal;font-family:Roboto;-inkscape-font-specification:'Roboto Bold';fill:#666666"
         id="path5759" />
      <path
         d="m 502.7285,351.91214 q -0.39062,-0.76172 -0.56641,-1.89453 -2.05078,2.28515 -5.33203,2.28515 -3.10547,0 -5.15625,-1.79687 -2.03125,-1.79688 -2.03125,-4.53125 0,-3.35938 2.48047,-5.15625 2.5,-1.79688 7.20703,-1.81641 l 2.59766,0 0,-1.21093 q 0,-1.46485 -0.76172,-2.34375 -0.74219,-0.87891 -2.36328,-0.87891 -1.42578,0 -2.24609,0.68359 -0.80079,0.6836 -0.80079,1.875 l -5.64453,0 q 0,-1.83593 1.13282,-3.39843 1.13281,-1.5625 3.20312,-2.44141 2.07031,-0.89844 4.64844,-0.89844 3.90625,0 6.1914,1.97266 2.30469,1.95312 2.30469,5.50781 l 0,9.16016 q 0.0195,3.00781 0.83985,4.55078 l 0,0.33203 -5.70313,0 z m -4.66797,-3.92578 q 1.25,0 2.30469,-0.54688 1.05469,-0.5664 1.5625,-1.5039 l 0,-3.63282 -2.10938,0 q -4.23828,0 -4.51171,2.92969 l -0.0195,0.33203 q 0,1.05469 0.74219,1.73828 0.74219,0.6836 2.03125,0.6836 z"
         style="font-style:normal;font-variant:normal;font-weight:bold;font-stretch:normal;font-family:Roboto;-inkscape-font-specification:'Roboto Bold';fill:#666666"
         id="path5761" />
      <path
         d="m 517.92381,351.91214 -5.66406,0 0,-30 5.66406,0 0,30 z"
         style="font-style:normal;font-variant:normal;font-weight:bold;font-stretch:normal;font-family:Roboto;-inkscape-font-specification:'Roboto Bold';fill:#666666"
         id="path5763" />
      <path
         d="m 554.48631,323.47464 0,18.73047 q 0,4.66797 -2.92968,7.38281 -2.91016,2.71484 -7.96875,2.71484 -4.98047,0 -7.91016,-2.63671 -2.92969,-2.63672 -2.98828,-7.2461 l 0,-18.94531 5.85937,0 0,18.76953 q 0,2.79297 1.32813,4.08203 1.34765,1.26953 3.71094,1.26953 4.9414,0 5.01953,-5.19531 l 0,-18.92578 5.8789,0 z"
         style="font-style:normal;font-variant:normal;font-weight:bold;font-stretch:normal;font-family:Roboto;-inkscape-font-specification:'Roboto Bold';fill:#666666"
         id="path5765" />
      <path
         d="m 565.52147,351.91214 -5.85938,0 0,-28.4375 5.85938,0 0,28.4375 z"
         style="font-style:normal;font-variant:normal;font-weight:bold;font-stretch:normal;font-family:Roboto;-inkscape-font-specification:'Roboto Bold';fill:#666666"
         id="path5767" />
      <path
         d="m 588.23631,343.43558 -2.03125,2.03125 0,6.44531 -5.64453,0 0,-30 5.64453,0 0,16.62109 1.09375,-1.40625 5.41016,-6.34765 6.77734,0 -7.63672,8.80859 8.30079,12.32422 -6.48438,0 -5.42969,-8.47656 z"
         style="font-style:normal;font-variant:normal;font-weight:bold;font-stretch:normal;font-family:Roboto;-inkscape-font-specification:'Roboto Bold';fill:#666666"
         id="path5769" />
      <path
         d="m 607.92381,351.91214 -5.66406,0 0,-21.13281 5.66406,0 0,21.13281 z m -5.99609,-26.60156 q 0,-1.26953 0.83984,-2.08985 0.85938,-0.82031 2.32422,-0.82031 1.44531,0 2.30469,0.82031 0.85937,0.82032 0.85937,2.08985 0,1.28906 -0.8789,2.10937 -0.85938,0.82031 -2.28516,0.82031 -1.42578,0 -2.30469,-0.82031 -0.85937,-0.82031 -0.85937,-2.10937 z"
         style="font-style:normal;font-variant:normal;font-weight:bold;font-stretch:normal;font-family:Roboto;-inkscape-font-specification:'Roboto Bold';fill:#666666"
         id="path5771" />
      <path
         d="m 619.34959,325.58401 0,5.19532 3.61329,0 0,4.14062 -3.61329,0 0,10.54688 q 0,1.17187 0.44922,1.67968 0.44922,0.50782 1.71875,0.50782 0.9375,0 1.66016,-0.13672 l 0,4.27734 q -1.66016,0.50781 -3.41797,0.50781 -5.9375,0 -6.05469,-5.99609 l 0,-11.38672 -3.08593,0 0,-4.14062 3.08593,0 0,-5.19532 5.64453,0 z"
         style="font-style:normal;font-variant:normal;font-weight:bold;font-stretch:normal;font-family:Roboto;-inkscape-font-specification:'Roboto Bold';fill:#666666"
         id="path5773" />
      <path
         d="m 238.12645,371.22366 -5.71289,0 0,15.84473 -2.33154,0 0,-15.84473 -5.70069,0 0,-1.92871 13.74512,0 0,1.92871 z"
         style="font-style:normal;font-variant:normal;font-weight:normal;font-stretch:normal;font-size:25px;font-family:Roboto;-inkscape-font-specification:Roboto;fill:#666666"
         id="path5775" />
      <path
         d="m 247.22069,387.06839 q -0.19531,-0.39063 -0.31738,-1.3916 -1.57471,1.63574 -3.75977,1.63574 -1.95313,0 -3.21045,-1.09863 -1.24512,-1.11084 -1.24512,-2.80762 0,-2.06299 1.5625,-3.19824 1.57471,-1.14746 4.41895,-1.14746 l 2.19726,0 0,-1.0376 q 0,-1.18408 -0.708,-1.87988 -0.70801,-0.70801 -2.08741,-0.70801 -1.20849,0 -2.02636,0.61035 -0.81787,0.61035 -0.81787,1.47705 l -2.27051,0 q 0,-0.98877 0.6958,-1.9043 0.70801,-0.92773 1.9043,-1.46484 1.20849,-0.53711 2.64892,-0.53711 2.28272,0 3.57666,1.14746 1.29395,1.13526 1.34277,3.13721 l 0,6.0791 q 0,1.81885 0.46387,2.89307 l 0,0.19531 -2.36816,0 z m -3.74756,-1.72119 q 1.06201,0 2.01416,-0.54932 0.95215,-0.54931 1.37939,-1.42822 l 0,-2.70996 -1.77002,0 q -4.15039,0 -4.15039,2.4292 0,1.06201 0.70801,1.66015 0.70801,0.59815 1.81885,0.59815 z"
         style="font-style:normal;font-variant:normal;font-weight:normal;font-stretch:normal;font-size:25px;font-family:Roboto;-inkscape-font-specification:Roboto;fill:#666666"
         id="path5777" />
      <path
         d="m 256.37596,380.95267 -1.41601,1.47705 0,4.63867 -2.25831,0 0,-18.75 2.25831,0 0,11.34033 1.20849,-1.45263 4.11377,-4.34571 2.74658,0 -5.13916,5.51758 5.73731,7.69043 -2.64893,0 -4.60205,-6.11572 z"
         style="font-style:normal;font-variant:normal;font-weight:normal;font-stretch:normal;font-size:25px;font-family:Roboto;-inkscape-font-specification:Roboto;fill:#666666"
         id="path5779" />
      <path
         d="m 270.62157,387.31253 q -2.68555,0 -4.37012,-1.75781 -1.68457,-1.77002 -1.68457,-4.72412 l 0,-0.41504 q 0,-1.96533 0.74463,-3.50342 0.75683,-1.55029 2.09961,-2.41699 1.35498,-0.87891 2.92969,-0.87891 2.57568,0 4.0039,1.69678 1.42822,1.69678 1.42822,4.8584 l 0,0.93994 -8.94775,0 q 0.0488,1.95312 1.13525,3.16162 1.09864,1.19629 2.78321,1.19629 1.19629,0 2.02636,-0.48828 0.83008,-0.48828 1.45264,-1.29395 l 1.3794,1.07422 q -1.66016,2.55127 -4.98047,2.55127 z m -0.28076,-11.84082 q -1.36719,0 -2.29493,1.00098 -0.92773,0.98877 -1.14746,2.7832 l 6.61621,0 0,-0.1709 q -0.0976,-1.72119 -0.92773,-2.66113 -0.83008,-0.95215 -2.24609,-0.95215 z"
         style="font-style:normal;font-variant:normal;font-weight:normal;font-stretch:normal;font-size:25px;font-family:Roboto;-inkscape-font-specification:Roboto;fill:#666666"
         id="path5781" />
      <path
         d="m 295.75584,380.61087 q 0,3.02734 -1.3916,4.87061 -1.3916,1.83105 -3.73535,1.83105 -2.50244,0 -3.86963,-1.77002 l -0.10986,1.52588 -2.0752,0 0,-18.75 2.2583,0 0,6.99463 q 1.36719,-1.69678 3.77198,-1.69678 2.40478,0 3.77197,1.81885 1.37939,1.81885 1.37939,4.98047 l 0,0.19531 z m -2.2583,-0.25635 q 0,-2.30713 -0.89111,-3.56445 -0.89111,-1.25732 -2.56348,-1.25732 -2.23388,0 -3.21045,2.07519 l 0,5.71289 q 1.0376,2.0752 3.23487,2.0752 1.62353,0 2.52685,-1.25733 0.90332,-1.25732 0.90332,-3.78418 z"
         style="font-style:normal;font-variant:normal;font-weight:normal;font-stretch:normal;font-size:25px;font-family:Roboto;-inkscape-font-specification:Roboto;fill:#666666"
         id="path5783" />
      <path
         d="m 306.74217,387.06839 q -0.19531,-0.39063 -0.31738,-1.3916 -1.57471,1.63574 -3.75977,1.63574 -1.95312,0 -3.21045,-1.09863 -1.24511,-1.11084 -1.24511,-2.80762 0,-2.06299 1.5625,-3.19824 1.5747,-1.14746 4.41894,-1.14746 l 2.19727,0 0,-1.0376 q 0,-1.18408 -0.70801,-1.87988 -0.70801,-0.70801 -2.0874,-0.70801 -1.2085,0 -2.02637,0.61035 -0.81787,0.61035 -0.81787,1.47705 l -2.27051,0 q 0,-0.98877 0.6958,-1.9043 0.70801,-0.92773 1.9043,-1.46484 1.2085,-0.53711 2.64893,-0.53711 2.28271,0 3.57666,1.14746 1.29394,1.13526 1.34277,3.13721 l 0,6.0791 q 0,1.81885 0.46387,2.89307 l 0,0.19531 -2.36817,0 z m -3.74756,-1.72119 q 1.06202,0 2.01416,-0.54932 0.95215,-0.54931 1.3794,-1.42822 l 0,-2.70996 -1.77002,0 q -4.15039,0 -4.15039,2.4292 0,1.06201 0.70801,1.66015 0.708,0.59815 1.81884,0.59815 z"
         style="font-style:normal;font-variant:normal;font-weight:normal;font-stretch:normal;font-size:25px;font-family:Roboto;-inkscape-font-specification:Roboto;fill:#666666"
         id="path5785" />
      <path
         d="m 317.50877,385.46927 q 1.2085,0 2.11182,-0.73242 0.90332,-0.73242 1.00098,-1.83106 l 2.13623,0 q -0.061,1.13526 -0.78125,2.16065 -0.72022,1.02539 -1.92871,1.63574 -1.19629,0.61035 -2.53907,0.61035 -2.69775,0 -4.29687,-1.79443 -1.58692,-1.80664 -1.58692,-4.93164 l 0,-0.37842 q 0,-1.92871 0.70801,-3.43018 0.70801,-1.50146 2.02637,-2.33154 1.33057,-0.83008 3.13721,-0.83008 2.22168,0 3.68652,1.33057 1.47705,1.33056 1.57471,3.45459 l -2.13623,0 q -0.0977,-1.28174 -0.97657,-2.09961 -0.86669,-0.83008 -2.14843,-0.83008 -1.72119,0 -2.67334,1.24512 -0.93994,1.23291 -0.93994,3.57666 l 0,0.42724 q 0,2.28272 0.93994,3.51563 0.93994,1.23291 2.68554,1.23291 z"
         style="font-style:normal;font-variant:normal;font-weight:normal;font-stretch:normal;font-size:25px;font-family:Roboto;-inkscape-font-specification:Roboto;fill:#666666"
         id="path5787" />
      <path
         d="m 328.98338,380.95267 -1.41601,1.47705 0,4.63867 -2.2583,0 0,-18.75 2.2583,0 0,11.34033 1.20849,-1.45263 4.11377,-4.34571 2.74659,0 -5.13916,5.51758 5.7373,7.69043 -2.64893,0 -4.60205,-6.11572 z"
         style="font-style:normal;font-variant:normal;font-weight:normal;font-stretch:normal;font-size:25px;font-family:Roboto;-inkscape-font-specification:Roboto;fill:#666666"
         id="path5789" />
      <path
         d="m 349.4912,385.46927 q 1.20849,0 2.11181,-0.73242 0.90332,-0.73242 1.00098,-1.83106 l 2.13623,0 q -0.061,1.13526 -0.78125,2.16065 -0.72022,1.02539 -1.92871,1.63574 -1.19629,0.61035 -2.53906,0.61035 -2.69776,0 -4.29688,-1.79443 -1.58691,-1.80664 -1.58691,-4.93164 l 0,-0.37842 q 0,-1.92871 0.708,-3.43018 0.70801,-1.50146 2.02637,-2.33154 1.33057,-0.83008 3.13721,-0.83008 2.22168,0 3.68652,1.33057 1.47705,1.33056 1.57471,3.45459 l -2.13623,0 q -0.0977,-1.28174 -0.97656,-2.09961 -0.8667,-0.83008 -2.14844,-0.83008 -1.72119,0 -2.67334,1.24512 -0.93994,1.23291 -0.93994,3.57666 l 0,0.42724 q 0,2.28272 0.93994,3.51563 0.93994,1.23291 2.68555,1.23291 z"
         style="font-style:normal;font-variant:normal;font-weight:normal;font-stretch:normal;font-size:25px;font-family:Roboto;-inkscape-font-specification:Roboto;fill:#666666"
         id="path5791" />
      <path
         d="m 356.68114,380.34232 q 0,-1.94092 0.75683,-3.49122 0.76905,-1.55029 2.12403,-2.39257 1.36718,-0.84229 3.11279,-0.84229 2.69775,0 4.35791,1.86768 1.67236,1.86767 1.67236,4.96826 l 0,0.15869 q 0,1.92871 -0.74463,3.4668 -0.73242,1.52588 -2.11181,2.38037 -1.36719,0.85449 -3.14942,0.85449 -2.68554,0 -4.35791,-1.86768 -1.66015,-1.86767 -1.66015,-4.94384 l 0,-0.15869 z m 2.2705,0.26855 q 0,2.19727 1.01319,3.52783 1.02539,1.33057 2.73437,1.33057 1.72119,0 2.73438,-1.34277 1.01318,-1.35499 1.01318,-3.78418 0,-2.17286 -1.0376,-3.51563 -1.02539,-1.35498 -2.73437,-1.35498 -1.67236,0 -2.69775,1.33057 -1.0254,1.33056 -1.0254,3.80859 z"
         style="font-style:normal;font-variant:normal;font-weight:normal;font-stretch:normal;font-size:25px;font-family:Roboto;-inkscape-font-specification:Roboto;fill:#666666"
         id="path5793" />
      <path
         d="m 373.67332,373.86038 0.0733,1.66016 q 1.51367,-1.9043 3.95507,-1.9043 4.18702,0 4.22364,4.72412 l 0,8.72803 -2.2583,0 0,-8.74023 q -0.0122,-1.42823 -0.65918,-2.11182 -0.63477,-0.68359 -1.98975,-0.68359 -1.09863,0 -1.92871,0.58593 -0.83008,0.58594 -1.29395,1.53809 l 0,9.41162 -2.2583,0 0,-13.20801 2.13623,0 z"
         style="font-style:normal;font-variant:normal;font-weight:normal;font-stretch:normal;font-size:25px;font-family:Roboto;-inkscape-font-specification:Roboto;fill:#666666"
         id="path5795" />
      <path
         d="m 388.41942,370.66214 0,3.19824 2.46582,0 0,1.74561 -2.46582,0 0,8.19092 q 0,0.79345 0.32959,1.19628 0.32959,0.39063 1.12305,0.39063 0.39062,0 1.07421,-0.14648 l 0,1.83105 q -0.89111,0.24414 -1.73339,0.24414 -1.51368,0 -2.28272,-0.91553 -0.76904,-0.91552 -0.76904,-2.60009 l 0,-8.19092 -2.40479,0 0,-1.74561 2.40479,0 0,-3.19824 2.2583,0 z"
         style="font-style:normal;font-variant:normal;font-weight:normal;font-stretch:normal;font-size:25px;font-family:Roboto;-inkscape-font-specification:Roboto;fill:#666666"
         id="path5797" />
      <path
         d="m 399.89403,375.88675 q -0.5127,-0.0854 -1.11084,-0.0854 -2.22168,0 -3.01514,1.89209 l 0,9.375 -2.2583,0 0,-13.20801 2.19727,0 0.0366,1.52588 q 1.11084,-1.77002 3.14941,-1.77002 0.65918,0 1.00098,0.1709 l 0,2.09961 z"
         style="font-style:normal;font-variant:normal;font-weight:normal;font-stretch:normal;font-size:25px;font-family:Roboto;-inkscape-font-specification:Roboto;fill:#666666"
         id="path5799" />
      <path
         d="m 401.11473,380.34232 q 0,-1.94092 0.75684,-3.49122 0.76904,-1.55029 2.12402,-2.39257 1.36719,-0.84229 3.11279,-0.84229 2.69776,0 4.35791,1.86768 1.67237,1.86767 1.67237,4.96826 l 0,0.15869 q 0,1.92871 -0.74463,3.4668 -0.73242,1.52588 -2.11182,2.38037 -1.36719,0.85449 -3.14941,0.85449 -2.68555,0 -4.35791,-1.86768 -1.66016,-1.86767 -1.66016,-4.94384 l 0,-0.15869 z m 2.27051,0.26855 q 0,2.19727 1.01318,3.52783 1.02539,1.33057 2.73438,1.33057 1.72119,0 2.73437,-1.34277 1.01319,-1.35499 1.01319,-3.78418 0,-2.17286 -1.0376,-3.51563 -1.02539,-1.35498 -2.73438,-1.35498 -1.67236,0 -2.69775,1.33057 -1.02539,1.33056 -1.02539,3.80859 z"
         style="font-style:normal;font-variant:normal;font-weight:normal;font-stretch:normal;font-size:25px;font-family:Roboto;-inkscape-font-specification:Roboto;fill:#666666"
         id="path5801" />
      <path
         d="m 418.4243,387.06839 -2.2583,0 0,-18.75 2.2583,0 0,18.75 z"
         style="font-style:normal;font-variant:normal;font-weight:normal;font-stretch:normal;font-size:25px;font-family:Roboto;-inkscape-font-specification:Roboto;fill:#666666"
         id="path5803" />
      <path
         d="m 436.38084,387.06839 q -0.19531,-0.39063 -0.31738,-1.3916 -1.57471,1.63574 -3.75976,1.63574 -1.95313,0 -3.21045,-1.09863 -1.24512,-1.11084 -1.24512,-2.80762 0,-2.06299 1.5625,-3.19824 1.57471,-1.14746 4.41894,-1.14746 l 2.19727,0 0,-1.0376 q 0,-1.18408 -0.70801,-1.87988 -0.70801,-0.70801 -2.0874,-0.70801 -1.2085,0 -2.02637,0.61035 -0.81787,0.61035 -0.81787,1.47705 l -2.27051,0 q 0,-0.98877 0.6958,-1.9043 0.70801,-0.92773 1.9043,-1.46484 1.2085,-0.53711 2.64893,-0.53711 2.28271,0 3.57666,1.14746 1.29394,1.13526 1.34277,3.13721 l 0,6.0791 q 0,1.81885 0.46387,2.89307 l 0,0.19531 -2.36817,0 z m -3.74755,-1.72119 q 1.06201,0 2.01416,-0.54932 0.95214,-0.54931 1.37939,-1.42822 l 0,-2.70996 -1.77002,0 q -4.15039,0 -4.15039,2.4292 0,1.06201 0.70801,1.66015 0.70801,0.59815 1.81885,0.59815 z"
         style="font-style:normal;font-variant:normal;font-weight:normal;font-stretch:normal;font-size:25px;font-family:Roboto;-inkscape-font-specification:Roboto;fill:#666666"
         id="path5805" />
      <path
         d="m 443.98582,373.86038 0.0733,1.66016 q 1.51367,-1.9043 3.95507,-1.9043 4.18702,0 4.22364,4.72412 l 0,8.72803 -2.2583,0 0,-8.74023 q -0.0122,-1.42823 -0.65918,-2.11182 -0.63477,-0.68359 -1.98975,-0.68359 -1.09863,0 -1.92871,0.58593 -0.83008,0.58594 -1.29395,1.53809 l 0,9.41162 -2.2583,0 0,-13.20801 2.13623,0 z"
         style="font-style:normal;font-variant:normal;font-weight:normal;font-stretch:normal;font-size:25px;font-family:Roboto;-inkscape-font-specification:Roboto;fill:#666666"
         id="path5807" />
      <path
         d="m 455.11864,380.35452 q 0,-3.03955 1.44043,-4.88281 1.44043,-1.85547 3.77197,-1.85547 2.31934,0 3.67432,1.58692 l 0,-6.88477 2.2583,0 0,18.75 -2.0752,0 -0.10986,-1.41602 q -1.35498,1.66016 -3.77197,1.66016 -2.29493,0 -3.74756,-1.87988 -1.44043,-1.87989 -1.44043,-4.90723 l 0,-0.1709 z m 2.2583,0.25635 q 0,2.24609 0.92773,3.51563 0.92774,1.26953 2.56348,1.26953 2.14844,0 3.13721,-1.92871 l 0,-6.0669 q -1.01319,-1.86767 -3.1128,-1.86767 -1.66015,0 -2.58789,1.28173 -0.92773,1.28174 -0.92773,3.79639 z"
         style="font-style:normal;font-variant:normal;font-weight:normal;font-stretch:normal;font-size:25px;font-family:Roboto;-inkscape-font-specification:Roboto;fill:#666666"
         id="path5809" />
      <path
         d="m 478.10448,373.86038 0.061,1.46485 q 1.45264,-1.70899 3.91846,-1.70899 2.771,0 3.77197,2.12402 0.65918,-0.95214 1.70899,-1.53808 1.06201,-0.58594 2.50244,-0.58594 4.3457,0 4.41894,4.60205 l 0,8.8501 -2.2583,0 0,-8.71582 q 0,-1.41602 -0.64697,-2.11182 -0.64697,-0.708 -2.17285,-0.708 -1.25733,0 -2.0874,0.75683 -0.83008,0.74463 -0.96436,2.01416 l 0,8.76465 -2.27051,0 0,-8.65479 q 0,-2.88085 -2.81982,-2.88085 -2.22168,0 -3.03955,1.89209 l 0,9.64355 -2.2583,0 0,-13.20801 2.13623,0 z"
         style="font-style:normal;font-variant:normal;font-weight:normal;font-stretch:normal;font-size:25px;font-family:Roboto;-inkscape-font-specification:Roboto;fill:#666666"
         id="path5811" />
      <path
         d="m 506.05858,387.06839 q -0.19531,-0.39063 -0.31738,-1.3916 -1.57471,1.63574 -3.75977,1.63574 -1.95312,0 -3.21045,-1.09863 -1.24512,-1.11084 -1.24512,-2.80762 0,-2.06299 1.5625,-3.19824 1.57471,-1.14746 4.41895,-1.14746 l 2.19726,0 0,-1.0376 q 0,-1.18408 -0.708,-1.87988 -0.70801,-0.70801 -2.08741,-0.70801 -1.20849,0 -2.02636,0.61035 -0.81787,0.61035 -0.81787,1.47705 l -2.27051,0 q 0,-0.98877 0.6958,-1.9043 0.70801,-0.92773 1.9043,-1.46484 1.20849,-0.53711 2.64892,-0.53711 2.28272,0 3.57666,1.14746 1.29395,1.13526 1.34278,3.13721 l 0,6.0791 q 0,1.81885 0.46386,2.89307 l 0,0.19531 -2.36816,0 z m -3.74756,-1.72119 q 1.06201,0 2.01416,-0.54932 0.95215,-0.54931 1.37939,-1.42822 l 0,-2.70996 -1.77001,0 q -4.1504,0 -4.1504,2.4292 0,1.06201 0.70801,1.66015 0.70801,0.59815 1.81885,0.59815 z"
         style="font-style:normal;font-variant:normal;font-weight:normal;font-stretch:normal;font-size:25px;font-family:Roboto;-inkscape-font-specification:Roboto;fill:#666666"
         id="path5813" />
      <path
         d="m 515.21385,380.95267 -1.41601,1.47705 0,4.63867 -2.2583,0 0,-18.75 2.2583,0 0,11.34033 1.20849,-1.45263 4.11377,-4.34571 2.74658,0 -5.13916,5.51758 5.73731,7.69043 -2.64893,0 -4.60205,-6.11572 z"
         style="font-style:normal;font-variant:normal;font-weight:normal;font-stretch:normal;font-size:25px;font-family:Roboto;-inkscape-font-specification:Roboto;fill:#666666"
         id="path5815" />
      <path
         d="m 529.45946,387.31253 q -2.68555,0 -4.37012,-1.75781 -1.68457,-1.77002 -1.68457,-4.72412 l 0,-0.41504 q 0,-1.96533 0.74463,-3.50342 0.75683,-1.55029 2.09961,-2.41699 1.35498,-0.87891 2.92969,-0.87891 2.57568,0 4.0039,1.69678 1.42822,1.69678 1.42822,4.8584 l 0,0.93994 -8.94775,0 q 0.0488,1.95312 1.13525,3.16162 1.09864,1.19629 2.78321,1.19629 1.19629,0 2.02636,-0.48828 0.83008,-0.48828 1.45264,-1.29395 l 1.3794,1.07422 q -1.66016,2.55127 -4.98047,2.55127 z m -0.28076,-11.84082 q -1.36719,0 -2.29493,1.00098 -0.92773,0.98877 -1.14746,2.7832 l 6.61621,0 0,-0.1709 q -0.0977,-1.72119 -0.92773,-2.66113 -0.83008,-0.95215 -2.24609,-0.95215 z"
         style="font-style:normal;font-variant:normal;font-weight:normal;font-stretch:normal;font-size:25px;font-family:Roboto;-inkscape-font-specification:Roboto;fill:#666666"
         id="path5817" />
      <path
         d="m 546.47606,370.66214 0,3.19824 2.46582,0 0,1.74561 -2.46582,0 0,8.19092 q 0,0.79345 0.32959,1.19628 0.32959,0.39063 1.12305,0.39063 0.39062,0 1.07421,-0.14648 l 0,1.83105 q -0.89111,0.24414 -1.73339,0.24414 -1.51368,0 -2.28272,-0.91553 -0.76904,-0.91552 -0.76904,-2.60009 l 0,-8.19092 -2.40479,0 0,-1.74561 2.40479,0 0,-3.19824 2.2583,0 z"
         style="font-style:normal;font-variant:normal;font-weight:normal;font-stretch:normal;font-size:25px;font-family:Roboto;-inkscape-font-specification:Roboto;fill:#666666"
         id="path5819" />
      <path
         d="m 553.82469,375.4595 q 1.50147,-1.84326 3.90625,-1.84326 4.18701,0 4.22363,4.72412 l 0,8.72803 -2.2583,0 0,-8.74023 q -0.0122,-1.42823 -0.65918,-2.11182 -0.63476,-0.68359 -1.98974,-0.68359 -1.09863,0 -1.92871,0.58593 -0.83008,0.58594 -1.29395,1.53809 l 0,9.41162 -2.2583,0 0,-18.75 2.2583,0 0,7.14111 z"
         style="font-style:normal;font-variant:normal;font-weight:normal;font-stretch:normal;font-size:25px;font-family:Roboto;-inkscape-font-specification:Roboto;fill:#666666"
         id="path5821" />
      <path
         d="m 567.78954,387.06839 -2.25831,0 0,-13.20801 2.25831,0 0,13.20801 z m -2.44141,-16.71143 q 0,-0.54931 0.32959,-0.92773 0.3418,-0.37842 1.00098,-0.37842 0.65918,0 1.00097,0.37842 0.3418,0.37842 0.3418,0.92773 0,0.54932 -0.3418,0.91553 -0.34179,0.36621 -1.00097,0.36621 -0.65918,0 -1.00098,-0.36621 -0.32959,-0.36621 -0.32959,-0.91553 z"
         style="font-style:normal;font-variant:normal;font-weight:normal;font-stretch:normal;font-size:25px;font-family:Roboto;-inkscape-font-specification:Roboto;fill:#666666"
         id="path5823" />
      <path
         d="m 573.52684,373.86038 0.0732,1.66016 q 1.51367,-1.9043 3.95508,-1.9043 4.18701,0 4.22363,4.72412 l 0,8.72803 -2.2583,0 0,-8.74023 q -0.0122,-1.42823 -0.65918,-2.11182 -0.63476,-0.68359 -1.98974,-0.68359 -1.09864,0 -1.92871,0.58593 -0.83008,0.58594 -1.29395,1.53809 l 0,9.41162 -2.2583,0 0,-13.20801 2.13623,0 z"
         style="font-style:normal;font-variant:normal;font-weight:normal;font-stretch:normal;font-size:25px;font-family:Roboto;-inkscape-font-specification:Roboto;fill:#666666"
         id="path5825" />
      <path
         d="m 584.67186,380.35452 q 0,-3.08838 1.42822,-4.90722 1.42823,-1.83106 3.78418,-1.83106 2.41699,0 3.77197,1.70899 l 0.10987,-1.46485 2.06299,0 0,12.89063 q 0,2.56347 -1.52588,4.04052 -1.51367,1.47706 -4.07715,1.47706 -1.42822,0 -2.79541,-0.61036 -1.36719,-0.61035 -2.0874,-1.67236 l 1.17187,-1.35498 q 1.45264,1.79443 3.55225,1.79443 1.64795,0 2.56347,-0.92773 0.92774,-0.92774 0.92774,-2.61231 l 0,-1.13525 q -1.35498,1.5625 -3.69873,1.5625 -2.31934,0 -3.75977,-1.86768 -1.42822,-1.86767 -1.42822,-5.09033 z m 2.27051,0.25635 q 0,2.23389 0.91552,3.51563 0.91553,1.26953 2.56348,1.26953 2.13623,0 3.13721,-1.94092 l 0,-6.03027 q -1.0376,-1.89209 -3.11279,-1.89209 -1.64795,0 -2.57569,1.28173 -0.92773,1.28174 -0.92773,3.79639 z"
         style="font-style:normal;font-variant:normal;font-weight:normal;font-stretch:normal;font-size:25px;font-family:Roboto;-inkscape-font-specification:Roboto;fill:#666666"
         id="path5827" />
      <path
         d="m 606.91307,383.56497 q 0,-0.91553 -0.6958,-1.41601 -0.68359,-0.5127 -2.40479,-0.87891 -1.70898,-0.36621 -2.72216,-0.87891 -1.00098,-0.51269 -1.48926,-1.2207 -0.47608,-0.70801 -0.47608,-1.68457 0,-1.62353 1.36719,-2.74658 1.3794,-1.12305 3.51563,-1.12305 2.24609,0 3.63769,1.15967 1.40381,1.15967 1.40381,2.96631 l -2.27051,0 q 0,-0.92774 -0.79345,-1.59912 -0.78125,-0.67139 -1.97754,-0.67139 -1.23291,0 -1.92871,0.53711 -0.6958,0.53711 -0.6958,1.40381 0,0.81787 0.64697,1.23291 0.64697,0.41504 2.33154,0.79346 1.69678,0.37841 2.74658,0.90332 1.04981,0.5249 1.5503,1.26953 0.51269,0.73242 0.51269,1.79443 0,1.77002 -1.41601,2.84424 -1.41602,1.06201 -3.67432,1.06201 -1.58691,0 -2.80762,-0.56152 -1.2207,-0.56153 -1.9165,-1.5625 -0.6836,-1.01319 -0.6836,-2.18506 l 2.25831,0 q 0.061,1.13525 0.90332,1.80664 0.85449,0.65918 2.24609,0.65918 1.28174,0 2.05078,-0.5127 0.78125,-0.5249 0.78125,-1.3916 z"
         style="font-style:normal;font-variant:normal;font-weight:normal;font-stretch:normal;font-size:25px;font-family:Roboto;-inkscape-font-specification:Roboto;fill:#666666"
         id="path5829" />
    </g>
    <text
       xml:space="preserve"
       style="font-style:normal;font-weight:normal;font-size:48.09731293px;line-height:125%;font-family:sans-serif;letter-spacing:0px;word-spacing:0px;fill:#000000;fill-opacity:1;stroke:none;stroke-width:1px;stroke-linecap:butt;stroke-linejoin:miter;stroke-opacity:1"
       x="136.24246"
       y="704.45538"
       id="text5730"><tspan
         id="tspan5732"
         x="136.24246"
         y="704.45538"
         style="font-style:normal;font-variant:normal;font-weight:bold;font-stretch:normal;font-family:Roboto;-inkscape-font-specification:'Roboto Bold'">Spartan minimal UI kit</tspan><tspan
         x="136.24246"
         y="746.72839"
         id="tspan5734"
         style="font-style:normal;font-variant:normal;font-weight:normal;font-stretch:normal;font-size:30.06081963px;font-family:Roboto;-inkscape-font-specification:Roboto">Take back control and make things</tspan></text>
    <g
       transform="matrix(1.4930016,0,0,1.4930016,616.6483,643.95999)"
       id="g6260"
       style="fill:#000000;fill-opacity:1">
      <polygon
         id="polygon6262"
         points="50,16.563 26.473,26.396 26.68,53.719 29.542,60.118 29.329,68.971 44.67,90.188 41.132,56.059 33.868,52.385 33.058,45.729 44.401,51.563 42.947,62.563 50,68.563 57.091,62.563 55.675,51.563 67.018,45.729 66.208,52.385 58.943,56.059 55.404,90.188 70.748,68.971 70.523,60.118 73.377,53.719 73.564,26.396 "
         style="fill:#000000;fill-opacity:1" />
      <path
         id="path6264"
         d="m 50,13.938 19.938,8.264 C 66.43,14.874 58.947,9.813 50.281,9.813 c -8.652,0 -16.125,5.045 -19.64,12.354 L 50,13.938 Z"
         style="fill:#000000;fill-opacity:1" />
    </g>
  </g>
</svg>
